<svg xmlns="http://www.w3.org/2000/svg" viewBox="0 0 512 512">
  <g transform="translate(96, 130)" fill="#0092da">
    <rect x="0" y="20" width="48" height="40" rx="8"/>
    <rect x="64" y="0" width="48" height="60" rx="8"/>
    <rect x="128" y="40" width="48" height="20" rx="8"/>
    <rect x="192" y="10" width="48" height="50" rx="8"/>
    <rect x="256" y="30" width="48" height="30" rx="8"/>
  </g>
  <g transform="translate(96, 230)" fill="#0092da" opacity="0.65">
    <rect x="0" y="0" width="48" height="60" rx="8"/>
    <rect x="64" y="20" width="48" height="40" rx="8"/>
    <rect x="128" y="10" width="48" height="50" rx="8"/>
    <rect x="192" y="30" width="48" height="30" rx="8"/>
    <rect x="256" y="20" width="48" height="40" rx="8"/>
  </g>
  <g transform="translate(96, 330)" fill="#0092da" opacity="0.4">
    <rect x="0" y="40" width="48" height="20" rx="8"/>
    <rect x="64" y="20" width="48" height="40" rx="8"/>
    <rect x="128" y="0" width="48" height="60" rx="8"/>
    <rect x="192" y="30" width="48" height="30" rx="8"/>
    <rect x="256" y="10" width="48" height="50" rx="8"/>
  </g>
</svg>
